<?xml version="1.0" encoding="UTF-8"?>
<svg viewBox="0 0 574.1438 234.24242" xmlns="http://www.w3.org/2000/svg" xmlns:xlink="http://www.w3.org/1999/xlink">
 <g transform="matrix(2.2902 0 0 2.2902 -164.65 -200.48)">
  <g transform="matrix(.25 0 0 .25 65.929 49.007)">
   <path d="m702.02 418.17 27.575 3.6164 73.683 69.615-14.013 8.5888 56.957 46.108s29.835-9.4929 35.259-14.917 8.1368-10.397 8.1368-10.397l-40.684-138.78-7.2327-56.957" fill="#7f8aa0" fill-rule="evenodd" stroke="#000"/>
   <path d="m653.65 446.65 28.479-29.835 46.108 7.6847-28.479 32.095-46.108-9.945z" fill="#738d9c" fill-rule="evenodd" stroke="#000"/>
   <path d="m702.93 457.5 27.575-31.643 32.547 32.095-23.506 20.794-36.616-21.246z" fill="#738d9c" fill-rule="evenodd" stroke="#000"/>
   <path d="m764.41 459.31-22.602 20.342 43.848 28.931 14.465-16.726-35.711-32.547z" fill="#738d9c" fill-rule="evenodd" stroke="#000"/>
   <path d="m790 389.86s-18.087 20.313-26.435 26.713-23.374 15.305-23.374 15.305-18.922 17.252-23.931 20.592-28.105 13.078-28.105 13.078l-4.174-7.5132s10.018-16.418 15.583-21.426 30.609-21.983 30.609-21.983l30.331-11.131 29.496-13.635z" fill="#56647f" fill-rule="evenodd" stroke="#000"/>
   <path d="m779.87 415.91s-16.334 17.154-21.926 22.16c-4.7485 7.9585-5.4159 9.0639-11.018 14.08-7.1497 6.4014-13.097 10.12-16.452 12.732s-17.983 11.495-17.983 11.495l-3.6396-7.142s6.7105-11.155 10.438-15.072 20.504-18.882 20.504-18.882l11.882-8.7062 28.194-10.665z" fill="#56647f" fill-rule="evenodd" stroke="#000" stroke-width=".72385"/>
   <path d="m795.86 433.66s-15.857 14.895-22.008 20.35c-5.2231 8.6716-8.0661 13.672-14.228 19.137-7.8642 6.975-14.406 11.027-18.097 13.873s-18.937 11.682-18.937 11.682l-3.1598-3.5643s7.8029-16.794 11.904-21.062 18.336-19.308 18.336-19.308l15.601-12.017 30.59-9.0901z" fill="#56647f" fill-rule="evenodd" stroke="#000" stroke-width=".79245"/>
   <path d="m835.12 464.42s-19.286 20.107-24.878 25.113c-4.7485 7.9585-2.4635 6.1115-8.0659 11.128-7.1497 6.4014-13.097 10.12-16.452 12.732s-17.983 11.495-17.983 11.495l-1.5307-2.5025s6.7105-13.263 10.438-20.134c2.5794-4.7534 18.395-18.46 18.395-18.46l11.882-8.7062 28.194-10.665z" fill="#56647f" fill-rule="evenodd" stroke="#000" stroke-width=".72385"/>
   <path d="m827.11 446.7s-13.342 11.542-19.395 15.834c-9.5094 6.7415-10.899 5.6898-16.501 10.706-7.1497 6.4014-22.376 22.352-25.731 24.964s-20.514 13.604-20.514 13.604l-2.3742-3.3461s7.9758-16.216 11.704-20.134 16.708-18.882 16.708-18.882l11.882-8.7062 44.221-14.039z" fill="#56647f" fill-rule="evenodd" stroke="#000" stroke-width=".72385"/>
   <path d="m849.87 561.05-4.2177 1.6871-1.2653-18.136 7.5919-3.3742 12.653-1.2653s-8.8572 5.9048-11.388 11.388-2.9524 10.123-3.3742 9.7008z" fill="#253456" fill-rule="evenodd" stroke="#000"/>
   <path d="m306.09 517.47 78.563 43.814s27.799-14.806 30.519-20.547 2.7195-8.4606 0.60433-12.993-10.878-30.216-10.878-30.216" fill="#7f8aa0" fill-rule="evenodd" stroke="#000"/>
   <path d="m211.73 319.25 48.941-24.991 143.35 104.48-107.95 71.502-84.344-150.99z" fill="#92a6b9" fill-rule="evenodd" stroke="#000"/>
   <path d="m251.94 298.72-40.219 20.531 56.375 100.91 49.156 36.062 79.281-52.531-144.59-104.97z" fill="#4d6aae" fill-rule="evenodd"/>
   <path d="m311.91 413.59-7.8438 5.2188-5.3438 23.812 5.3125 3.9062 7.3438-3.8438 0.875 3.5 7.25-4-7.5938-28.594zm-3.5938 12 2.125 11.125-5 2.375 2.875-13.5z" fill="#92a6b9" fill-rule="evenodd"/>
   <path d="m326.73 415.03-5.4827 3.1475s-0.36795-5.1454 3.046-9.9501c2.7414-3.8582 6.8026-6.498 9.747-6.7011s4.975 2.0306 4.975 5.5842-2.5383 7.7164-2.5383 7.7164 2.9444 0.30459 2.6398 5.5842-2.3352 9.1378-5.0766 12.082-5.8888 4.975-8.4271 5.3812c-2.5064 0.40103-4.5689-0.91378-4.975-3.7567s-0.10153-3.9597-0.10153-3.9597l5.0766-3.6551s0.30459 3.5536 2.6398 3.1475c1.4565-0.2533 3.2492-2.5791 3.6755-3.899 0.40567-1.256 0.69033-3.1067-0.83265-3.5128-0.6937-0.18498-2.9444 0.20306-2.9444 0.20306v-4.772s4.1628-2.7414 4.1628-4.6704-0.60919-2.8429-1.6245-2.7414-1.8276 0.40613-2.6398 1.6245-1.3199 3.249-1.3199 3.1475z" fill="#92a6b9" fill-rule="evenodd"/>
   <path d="m356.59375,390.96875c-4.31101.29793-8.28041,4.28306-9.5,5.46875-1.24289,1.20836-5.00001,5.1288-5,10.03125 0,4.45243 2.29853,4.97283 2.71875,5.03125-.18714.16986-1.71021,1.62882-2.84375,3.5625-1.20786,2.06045-1.2102,3.77475-1.28125,5.90625s.14884,5.53685 4.625,5.75 9.79479-4.68956 11.5-6.75 3.90329-6.4587 4.1875-10.4375-2.74999-5.12499-2.75-5.125 3.8165-4.77754 3.90625-8.1875c.07105-2.62885-.92745-5.17895-4.90625-5.25-.1421-.00245-.29591-.00589-.4375,0h-.21875zm-3.46875,7.03125c.0397-.00594.08635.00394.125,0 .15268-.01556.30428-.0111.4375,0h.03125l.0625.03125h.03125l.09375.03125c.71004.29623 1.12878,1.67341 1,3.21875-.1421,1.70521-1.76289,3.32204-3.0625,3.96875-.87993.43787-2.21319.42314-2.71875-.375-.04659-.07698-.09447-.15841-.125-.25-.35525-1.06575-.13121-2.98197 1.21875-4.625 1.08563-1.32133 2.09905-1.87923 2.90625-2zm-1.03125,12.34375c.16495-.01681.32482-.01199.46875,0 .0143.00157.04839.02894.0625.03125h.0625c.01372.00376.04897.02678.0625.03125 .03357.01206.0927.0149.125.03125 .00641.00344.02489.02764.03125.03125 .6936.41484 1.06943,1.82309.9375,3.40625-.15352,1.84223-1.8772,3.61383-3.28125,4.3125-.92605.46082-2.33035.45333-2.90625-.34375-.03478-.05026-.06556-.13097-.09375-.1875-.01554-.03282-.0493-.09008-.0625-.125-.00315-.00886.003-.02225 0-.03125-.3838-1.15139-.17717-3.22494 1.28125-5 1.23055-1.49772 2.42178-2.06547 3.3125-2.15625z" fill="#92a6b9" fill-rule="evenodd"/>
   <path d="m371.94 385.84c-2.6686 1.4808-4.9507 4.2572-6.3438 7.6562-1.7762 4.334-2.5938 6.9808-2.5938 12.594s1.0613 9.4375 4.1875 9.4375 8.8794-2.0919 12.219-6.7812c2.8478-3.9991 4.6771-9.6546 5.2812-13.656l-6.4375-4.6562c0.2392 0.69044 0.41244 1.63 0.375 2.75-0.08272 2.4733-0.74701 6.0032-1.875 8.7812-1.5536 3.8263-4.6025 6.9683-6.0312 6.2188h-0.03125c-0.034-0.02309-0.09837-0.0725-0.125-0.09375-0.0357-0.03227-0.09476-0.09132-0.125-0.125s-0.06834-0.08899-0.09375-0.125c-0.68657-1.0183-0.72009-3.5728-0.59375-6.375 0.1504-3.3356 2.5458-9.151 4.125-10.875 0.89522-0.97732 1.7784-1.429 2.4688-1.5625l-4.4062-3.1875z" fill="#92a6b9" fill-rule="evenodd"/>
   <path d="m253.78 502.56c77.914-57.879 114.65-85.706 149.15-104.63s410.11-203.6 461.92-225.95c30.164-13.011 89.045-21.148 104.63-15.583s28.94 13.357 28.94 13.357 22.018 5.7743 26.052 14.956c2.4112 5.4877 4.5915 19.949-12.035 40.906-17.72 22.336-149.81 83.271-149.81 83.271s-65.671 53.427-75.688 60.105-121.32 70.123-124.66 72.349-24.487 4.4522-44.522 12.244-91.271 17.809-91.271 17.809-32.279 15.583-51.201 18.922-150.26 28.94-158.05 28.94-64.558 3.3392-64.558 3.3392l1.1131-20.035z" fill="#e6e9f7" fill-rule="evenodd" stroke="#000"/>
   <path d="m391.91 404.25c-21.597 12.831-45.567 29.772-80.719 55.688 0.04692 0.12107 0.11758 0.23703 0.1875 0.34375 4.4749 6.8301 39.56 30.162 49.688 35.344 10.047 5.1402 20.325 7.7311 30.375 10.531 36.367-6.8519 74.328-14.164 83.844-15.844 9.7248-1.7162 22.977-6.6558 33.562-11.062-7.0345-2.0808-16.099-4.9772-22.25-7.6562-18.854-8.2117-51.927-28.898-59.344-34.156-15.667-11.107-36.521-26.593-35.344-33.188z" fill="#4d6aae" fill-rule="evenodd"/>
   <path d="m958.02 172.46 0.77842 0.99071h6.1566l1.5224-1.2832 3.1481-5.5102-0.84918-0.99071-3.2552-0.14153-1.1322 0.70765-6.3688 6.2273z" fill="#bacbd8" fill-rule="evenodd" stroke="#000"/>
   <path d="m994.31 169.55h-10.893l-1.7883-2.4386 1.138-0.97546 6.6656 0.16258 4.8772 3.2515z" fill="#bacbd8" fill-rule="evenodd" stroke="#000"/>
   <path d="m970.09 170.37 0.6503 1.4632 7.4784-1.9509 0.48773-1.3006v-1.3006l-1.3006-1.138-5.365 0.32515-1.9509 3.9018z" fill="#bacbd8" fill-rule="evenodd" stroke="#000"/>
   <path d="m910.43 184.06c-1.1249 1.8171 0.38575 25.292 1.5169 25.787 1.2135 0.53091 13.151-4.0123 14.259-5.4608 0.49299-0.64467 0.30453-6.7842 0.16291-12.84s-0.23643-12.029-0.76967-12.34c-0.91013-0.53091-14.183 3.2613-15.169 4.854z" fill="none" stroke="#000"/>
   <path d="m857.65 249.41s6.3889-3.2733 6.9719-3.2178c0.56311 0.05363 4.2904 6.4356 4.2904 6.4356s4.2631 6.6833 4.0759 7.4009c-0.16089 0.61674-6.5428 3.9686-6.5428 3.9686s-6.0976 3.6905-6.7574 3.4323c-0.61674-0.24133-4.0759-6.2211-4.0759-6.2211s-4.6658-7.3473-4.5049-8.0445c0.18447-0.79937 6.5428-3.7541 6.5428-3.7541z" fill="none" stroke="#000"/>
   <path id="j" transform="matrix(.85268 0 0 .93562 119.73 15.671)" d="m816.61 237.1c0 1.8406-0.76427 3.3328-1.707 3.3328s-1.707-1.4921-1.707-3.3328 0.76427-3.3328 1.707-3.3328 1.707 1.4921 1.707 3.3328z" fill="#bacbd8" fill-rule="evenodd" stroke="#000" stroke-linecap="round"/>
   <use id="i" transform="translate(7.1533 -3.4141)" width="1052.3622" height="744.09448" xlink:href="#j"/>
   <use id="h" transform="translate(6.9907 -3.2515)" width="1052.3622" height="744.09448" xlink:href="#i"/>
   <use id="g" transform="translate(7.1533 -3.5766)" width="1052.3622" height="744.09448" xlink:href="#h"/>
   <use id="f" transform="translate(7.3159 -3.2515)" width="1052.3622" height="744.09448" xlink:href="#g"/>
   <use id="e" transform="translate(7.1533 -3.7392)" width="1052.3622" height="744.09448" xlink:href="#f"/>
   <use id="d" transform="translate(7.4785 -3.2515)" width="1052.3622" height="744.09448" xlink:href="#e"/>
   <use id="c" transform="translate(7.641 -3.5766)" width="1052.3622" height="744.09448" xlink:href="#d"/>
   <use id="b" transform="translate(7.4785 -3.2515)" width="1052.3622" height="744.09448" xlink:href="#c"/>
   <use id="l" transform="translate(7.8036 -3.0889)" width="1052.3622" height="744.09448" xlink:href="#b"/>
   <use id="k" transform="translate(8.2913 -3.4141)" width="1052.3622" height="744.09448" xlink:href="#l"/>
   <use transform="translate(7.9662 -3.2515)" width="1052.3622" height="744.09448" xlink:href="#k"/>
   <path transform="matrix(.78543 0 0 .95256 63.38 66.708)" d="m816.61 237.1c0 1.8406-0.76427 3.3328-1.707 3.3328s-1.707-1.4921-1.707-3.3328 0.76427-3.3328 1.707-3.3328 1.707 1.4921 1.707 3.3328z" fill="#bacbd8" fill-rule="evenodd" stroke="#000" stroke-linecap="round"/>
   <use transform="matrix(.92114 0 0 1.0181 -40.319 47.278)" width="1052.3622" height="744.09448" xlink:href="#j"/>
   <use transform="matrix(.92114 0 0 1.0181 -40.469 47.444)" width="1052.3622" height="744.09448" xlink:href="#i"/>
   <use transform="matrix(.92114 0 0 1.0181 -40.319 47.113)" width="1052.3622" height="744.09448" xlink:href="#h"/>
   <use transform="matrix(.92114 0 0 1.0181 -40.17 47.444)" width="1052.3622" height="744.09448" xlink:href="#g"/>
   <use transform="matrix(.92114 0 0 1.0181 -40.319 46.947)" width="1052.3622" height="744.09448" xlink:href="#f"/>
   <use transform="matrix(.92114 0 0 1.0181 -40.02 47.444)" width="1052.3622" height="744.09448" xlink:href="#e"/>
   <use transform="matrix(.92114 0 0 1.0181 -39.87 47.113)" width="1052.3622" height="744.09448" xlink:href="#d"/>
   <use transform="matrix(.92114 0 0 1.0181 -40.02 47.444)" width="1052.3622" height="744.09448" xlink:href="#c"/>
   <use transform="matrix(.92114 0 0 1.0181 -39.72 47.609)" width="1052.3622" height="744.09448" xlink:href="#b"/>
   <use transform="matrix(.92114 0 0 1.0181 -39.271 47.278)" width="1052.3622" height="744.09448" xlink:href="#l"/>
   <use transform="matrix(.92114 0 0 1.0181 -39.571 47.444)" width="1052.3622" height="744.09448" xlink:href="#k"/>
   <path transform="matrix(.76566 0 0 .93986 -211.75 211.97)" d="m816.61 237.1c0 1.8406-0.76427 3.3328-1.707 3.3328s-1.707-1.4921-1.707-3.3328 0.76427-3.3328 1.707-3.3328 1.707 1.4921 1.707 3.3328z" fill="#bacbd8" fill-rule="evenodd" stroke="#000" stroke-linecap="round"/>
   <use transform="matrix(.89795 0 0 1.0045 -312.84 192.8)" width="1052.3622" height="744.09448" xlink:href="#j"/>
   <use transform="matrix(.89795 0 0 1.0045 -312.98 192.96)" width="1052.3622" height="744.09448" xlink:href="#i"/>
   <use transform="matrix(.89795 0 0 1.0045 -312.84 192.63)" width="1052.3622" height="744.09448" xlink:href="#h"/>
   <use transform="matrix(.89795 0 0 1.0045 -312.69 192.96)" width="1052.3622" height="744.09448" xlink:href="#g"/>
   <use transform="matrix(.89795 0 0 1.0045 -312.84 192.47)" width="1052.3622" height="744.09448" xlink:href="#f"/>
   <use transform="matrix(.89795 0 0 1.0045 -312.54 192.96)" width="1052.3622" height="744.09448" xlink:href="#e"/>
   <use transform="matrix(.89795 0 0 1.0045 -312.4 192.63)" width="1052.3622" height="744.09448" xlink:href="#d"/>
   <use transform="matrix(.89795 0 0 1.0045 -312.54 192.96)" width="1052.3622" height="744.09448" xlink:href="#c"/>
   <use transform="matrix(.89795 0 0 1.0045 -312.25 193.12)" width="1052.3622" height="744.09448" xlink:href="#b"/>
   <path d="m390.49 433.79c-0.2649 0.95409 0.05459 6.604 1.146 12.872s2.9549 13.154 3.3779 13.379c0.90762 0.48446 8.5188-4.7186 9.0864-6.2496 0.25266-0.68143-1.5055-6.7396-2.4201-12.915s-0.98572-12.468-1.395-12.76c-0.69865-0.49885-9.3309 4.0008-9.7953 5.6734z" fill="none" stroke="#000" stroke-width=".8424"/>
   <path d="m861 310.09s-14 5.8-19.8 9.2-26.8 8-30.6 5.2 2.6-8.8 7.4-18 3.6-19 0-23.8-21.4-13.8-48.4-3.2c0 0-64.6 18.75-124 46.7s-111.3 60.5-121.4 68.2-33 28.3-38 37.1-7 17.6-4.6 22 20.2 6.4 30.4 6.2 23-3.4 24.4-1.8-4.4 1.6-6.8 3.8-4.8 5-4 7.4l0.8 2.4" fill="none" stroke="#000"/>
   <path id="ao" transform="matrix(.82857 .55988 -.55988 .82857 252.12 -436.99)" d="m839.57 192.5c5.5e-4 1.3808-0.55896 2.5007-1.2494 2.5007s-1.2499-1.1199-1.2494-2.5007 0.55896-2.5007 1.2494-2.5007 1.2499 1.1199 1.2494 2.5007z" fill="#bacbd8" fill-rule="evenodd" stroke="#000" stroke-linecap="round" stroke-width=".64488"/>
   <use id="am" transform="translate(-8.277 3.2796)" width="1052.3622" height="744.09448" xlink:href="#ao"/>
   <use id="al" transform="translate(-7.1838 3.9042)" width="1052.3622" height="744.09448" xlink:href="#am"/>
   <use id="ak" transform="translate(-7.0276 3.1234)" width="1052.3622" height="744.09448" xlink:href="#al"/>
   <use id="aj" transform="translate(-7.0276 3.2796)" width="1052.3622" height="744.09448" xlink:href="#ak"/>
   <use id="ai" transform="translate(-6.8715 3.1234)" width="1052.3622" height="744.09448" xlink:href="#aj"/>
   <use id="ah" transform="translate(-7.1838 3.7481)" width="1052.3622" height="744.09448" xlink:href="#ai"/>
   <use id="ag" transform="translate(-7.34 3.5919)" width="1052.3622" height="744.09448" xlink:href="#ah"/>
   <use id="af" transform="translate(-7.0276 3.2796)" width="1052.3622" height="744.09448" xlink:href="#ag"/>
   <use id="ae" transform="translate(-7.1838 3.7481)" width="1052.3622" height="744.09448" xlink:href="#af"/>
   <use id="ad" transform="translate(-7.1838 3.2796)" width="1052.3622" height="744.09448" xlink:href="#ae"/>
   <use id="ac" transform="translate(-34.513 17.335)" width="1052.3622" height="744.09448" xlink:href="#ad"/>
   <use id="ab" transform="translate(-7.34 3.2796)" width="1052.3622" height="744.09448" xlink:href="#ac"/>
   <use id="aa" transform="translate(-7.34 3.9042)" width="1052.3622" height="744.09448" xlink:href="#ab"/>
   <use id="z" transform="translate(-7.34 3.7481)" width="1052.3622" height="744.09448" xlink:href="#aa"/>
   <use id="y" transform="translate(-7.1838 3.1234)" width="1052.3622" height="744.09448" xlink:href="#z"/>
   <use id="x" transform="translate(-6.8714 3.2796)" width="1052.3622" height="744.09448" xlink:href="#y"/>
   <use id="w" transform="translate(-7.4961 3.7481)" width="1052.3622" height="744.09448" xlink:href="#x"/>
   <use id="v" transform="translate(-7.1838 3.7481)" width="1052.3622" height="744.09448" xlink:href="#w"/>
   <use id="u" transform="translate(-7.34 3.5919)" width="1052.3622" height="744.09448" xlink:href="#v"/>
   <use id="t" transform="translate(-7.1838 3.2796)" width="1052.3622" height="744.09448" xlink:href="#u"/>
   <use id="s" transform="translate(-198.96 97.294)" width="1052.3622" height="744.09448" xlink:href="#t"/>
   <use id="r" transform="translate(-7.1838 3.7481)" width="1052.3622" height="744.09448" xlink:href="#s"/>
   <use id="q" transform="translate(-33.264 17.022)" width="1052.3622" height="744.09448" xlink:href="#r"/>
   <use id="p" transform="translate(-6.7153 3.1234)" width="1052.3622" height="744.09448" xlink:href="#q"/>
   <use id="o" transform="translate(-6.403 3.4357)" width="1052.3622" height="744.09448" xlink:href="#p"/>
   <use id="n" transform="translate(-6.2468 3.1234)" width="1052.3622" height="744.09448" xlink:href="#o"/>
   <use transform="translate(-6.403 3.2796)" width="1052.3622" height="744.09448" xlink:href="#n"/>
   <path d="m494.2 393.21c0.95654 4.9974 3.7481 13.431 3.4357 14.68s-4.6851 3.1234-5.9344 3.5919-4.6023 2.6262-5.6221 2.4987-4.3728-13.587-4.5289-15.773-0.93701-10.932-0.46851-11.713 3.9042-2.3425 5.1536-2.9672 4.8413-2.6549 6.2468-2.4987 0.75537 7.1527 1.7179 12.181z" fill="none" stroke="#000"/>
   <path id="an" d="m449.12 384.68c-0.74186 3.2087-0.96707 8.4447-1.6334 9.3305s-5.0705 2.8066-6.3077 3.3105-4.8415 2.4604-5.6906 2.5295 0.47157-8.4548 1.0249-9.8984 2.6304-7.1942 3.2852-7.7892 4.1433-2.1642 5.4298-2.7728 5.0589-2.5159 6.2353-2.6242-1.597 4.6856-2.3434 7.9142z" fill="none" stroke="#000" stroke-width=".73306"/>
   <path d="m802.71 243.42c0.95654 4.9974 3.7481 13.431 3.4357 14.68s-4.6851 3.1234-5.9344 3.5919-4.6023 2.6262-5.6221 2.4987-4.3728-13.587-4.5289-15.773-0.93701-10.932-0.46851-11.713 3.9042-2.3425 5.1536-2.9672 4.8413-2.6549 6.2468-2.4987 0.75537 7.1527 1.7179 12.181z" fill="none" stroke="#000"/>
   <use transform="translate(305.47 -149.79)" width="1052.3622" height="744.09448" xlink:href="#an"/>
   <path d="m978.59 231.47-19.812 13.281 12.531 9.25 25.25-15.531s-5.4644 0.01724-10.344-1.8125c-2.1728-0.81481-5.0467-2.9775-7.5938-5.1875h-0.03125z" fill="#404350" fill-rule="evenodd" stroke="#000"/>
   <path d="m1019.5 214.69c-12.503 2.4397-17.383-8.8438-18.907-8.8438s-7.319 6.7091-12.503 10.369-15.248 8.2339-15.248 9.1487 8.5388 9.4537 13.418 11.283 10.317 1.8297 10.317 1.8297" fill="none" stroke="#6c6c6c" stroke-width=".64488"/>
   <path d="m978.05 231.77-19.442 12.961 3.8533 9.1079 20.843-12.611-5.2546-9.4582z" fill="#a3a4ab" fill-rule="evenodd" stroke="#000"/>
   <path d="m782.94 283.01-93.121-3.6164-591.27-51.533s-21.698 0-29.835 2.7123c-4.0684 1.3561-5.4825 1.4198-12.349 5.3973-4.2979 2.4898-6.4306 5.5398-9.929 10.648l200.97 47.198 22.918-10.806 223.31 50.629 99.45 49.725s61.478-13.561 73.231-18.082 94.929-51.533 94.929-51.533 8.1368-7.2327 10.849-11.753 6.3286-7.2327 9.945-10.849 1.8082-9.0409 0.90409-8.1368z" fill="#7f8aa0" fill-rule="evenodd" stroke="#000"/>
   <path d="m556.25 411.57-95.445-45.636 33.114-27.548 95.723 44.244-33.392 28.94z" fill="#738d9c" fill-rule="evenodd" stroke="#000"/>
   <path d="m490.03 337.27-32.557 28.383-112.14-33.392 26.157-23.931 118.54 28.94z" fill="#738d9c" fill-rule="evenodd" stroke="#000"/>
   <path d="m368.15 307.5-26.435 23.931-99.341-27.548 24.487-18.644 101.29 22.261z" fill="#738d9c" fill-rule="evenodd" stroke="#000"/>
   <path d="m576.29 328.92s-35.34 8.0697-41.462 11.687-14.47 9.1828-23.653 16.696-23.931 25.6-23.931 25.6l0.27826 8.348s20.313-6.1218 31.444-15.026 57.044-47.305 57.323-47.305z" fill="#56647f" fill-rule="evenodd" stroke="#000"/>
   <path d="m500.32 314.45-25.879 6.6784-22.818 16.418-21.705 25.044 0.83479 7.7914s17.531-6.1218 26.435-12.8 43.688-42.853 43.131-43.131z" fill="#56647f" fill-rule="evenodd" stroke="#000"/>
   <path d="m441.05 298.31-30.331 7.2349s-20.313 13.078-25.6 17.809-18.644 18.366-18.644 18.366l-11.409 17.252 0.55653 3.6174s9.1828-2.5044 21.426-10.296 64.836-53.427 64.001-53.984z" fill="#56647f" fill-rule="evenodd" stroke="#000"/>
   <path d="m377.18 283.15-27.548 7.2349s-19.757 10.296-25.044 15.026-20.035 18.644-20.035 18.644l-11.409 17.252 0.55653 3.6174s9.1828-2.5044 21.426-10.296 60.94-49.253 62.053-51.479z" fill="#56647f" fill-rule="evenodd" stroke="#000"/>
   <path d="m316.94 266.03-23.374 6.9566s-20.87 8.348-26.157 13.078-21.148 18.366-21.148 18.366l-10.296 17.531 0.55653 3.6174s9.1828-2.5044 21.426-10.296 57.879-47.027 58.992-49.253z" fill="#56647f" fill-rule="evenodd" stroke="#000"/>
   <path d="m55.779 236.7-9.4899 9.7008s-9.3844 15.289-10.228 14.973-2.9524-0.21089-2.9524-0.21089l1.3708-18.98-10.123-8.8572 3.7959-0.94899 27.626 4.3232z" fill="#253456" fill-rule="evenodd" stroke="#000"/>
   <path d="m658.17 435.7-9.0851-3.6593-32.555 14.637 9.2113 2.3975 32.429-13.375z" fill="#27253d" fill-rule="evenodd" stroke="#000"/>
   <path d="m604.16 413.75-9.0851-3.6593-32.555 14.637 5.1735 5.8044 36.467-16.782z" fill="#27253d" fill-rule="evenodd" stroke="#000"/>
   <path d="m622.44 366.49-31.639-12.242-12.56 8.4265 22.577 12.56 0.31798 5.4056 19.079-6.2006-2.8618-3.4978 5.0877-4.4517z" fill="#1a1d2c" fill-rule="evenodd" stroke="#000"/>
   <g id="a">
    <path d="m564.8 432c3.9268-0.00552 7.1173 4.0086 7.1991 5.563s-0.24543 8.099-2.127 10.062c-2.3699 2.473-3.845 4.0086-7.1173 3.845s-6.2992-2.5361-6.9537-4.6631-1.4726-5.563 0.16362-8.5898 3.5177-6.2174 8.8353-6.2174z" fill="#141c27" fill-rule="evenodd" stroke="#000"/>
    <path d="m560.14 446.56c2.5242 0.32925 5.1539-3.2723 5.6448-4.7449s0.81808-3.9268-0.08181-5.2357-2.7815-1.9634-3.6814-1.8816-3.1905 1.6362-3.9268 3.1087-1.2822 3.5155-0.89989 5.2357c0.32723 1.4725 0.58016 3.2093 2.9451 3.5178z" fill="#565865" fill-rule="evenodd" stroke="#000"/>
   </g>
   <use transform="translate(15.741 6.4932)" width="1052.3622" height="744.09448" xlink:href="#a"/>
   <use transform="translate(34.63 2.3612)" width="1052.3622" height="744.09448" xlink:href="#a"/>
   <use transform="translate(53.126 -2.5579)" width="1052.3622" height="744.09448" xlink:href="#a"/>
   <path d="m591.77 419.27-0.32515 12.031 22.11 6.1779v2.6012l-15.932-5.5276-17.883 1.6258 5.8527-4.227 1.3006-1.6258v-8.779" fill="#434e52" fill-rule="evenodd" stroke="#000"/>
   <use transform="translate(18.496 -4.5256)" width="1052.3622" height="744.09448" xlink:href="#a"/>
   <use transform="translate(37.385 -8.2641)" width="1052.3622" height="744.09448" xlink:href="#a"/>
   <path d="m646.07 438.78-0.32515 12.031 22.11 6.1779v2.6012l-15.932-5.5276-17.883 1.6258 5.8527-4.227 1.3006-1.6258v-8.779" fill="#434e52" fill-rule="evenodd" stroke="#000"/>
   <use transform="translate(70.048 26.563)" width="1052.3622" height="744.09448" xlink:href="#a"/>
   <use transform="translate(87.953 22.038)" width="1052.3622" height="744.09448" xlink:href="#a"/>
   <use transform="translate(106.65 18.299)" width="1052.3622" height="744.09448" xlink:href="#a"/>
   <use transform="translate(54.11 20.463)" width="1052.3622" height="744.09448" xlink:href="#a"/>
   <use transform="translate(73.393 14.167)" width="1052.3622" height="744.09448" xlink:href="#a"/>
   <use transform="translate(91.298 11.412)" width="1052.3622" height="744.09448" xlink:href="#a"/>
   <use id="m" transform="matrix(.91997 0 0 .89591 458.88 -113.1)" width="1052.3622" height="744.09448" xlink:href="#a"/>
   <path d="m976.09 246.42-0.19252 9.4336 6.5458 0.09626-8.3747 7.5084 0.38504 15.498 1.3477 2.5028-7.3158-0.77009 2.0215-6.9308-0.28879-8.9523s-2.3367 0.51752-4.1392 2.4065c0.21659 0.84228 2.6953 4.043 2.6953 4.043l-1.829 1.2514-2.8878-4.6205 1.2514-6.257 1.829-1.9252-0.57757-3.9467 3.9467-1.829v-4.428l5.5831-3.0804z" fill="#8c94ab" fill-rule="evenodd" stroke="#000"/>
   <use transform="translate(-11.127 -3.3792)" width="1052.3622" height="744.09448" xlink:href="#m"/>
   <path d="m617.27 364.6 3.6163 1.8082-27.801 19.89-1.3561-2.2602 25.54-19.438z" fill="#434e52" fill-rule="evenodd" stroke="#000"/>
   <path d="m725.8 404.03s6.0568 6.0568 7.4448 10.726 3.5331 13.628 3.5331 13.628l-10.347 9.0851-14.637 2.6498-1.0095-20.946-3.7855-4.0378" fill="#2f363e" fill-rule="evenodd" stroke="#000"/>
   <use transform="translate(150.13 19.086)" width="1052.3622" height="744.09448" xlink:href="#a"/>
   <use transform="translate(168.23 17.315)" width="1052.3622" height="744.09448" xlink:href="#a"/>
   <path d="m710.2 413.41v3.9439l2.5141 2.1672v17.465l-4.3344 4.3344-0.91013 7.8878 3.6405 3.6405-0.91013-3.9439 0.30338-5.7641 2.1236-0.60676 0.30338 7.5844 4.5506 0.60675v-8.1912l4.854 5.7642 1.2135 5.4608 5.4608 4.5506 0.30338-3.9439-3.0338-3.0338-1.8203-7.5844-6.4798-6.458 0.04355-11.311 8.2565-21.064-4.2473 1.5169-3.6405 10.315v-8.7979l-8.1912 5.4608z" fill="#434e52" fill-rule="evenodd" stroke="#000"/>
   <use transform="translate(154.85 12.396)" width="1052.3622" height="744.09448" xlink:href="#a"/>
   <use transform="translate(136.75 13.577)" width="1052.3622" height="744.09448" xlink:href="#a"/>
   <use transform="translate(41.831 -30.155)" width="1052.3622" height="744.09448" xlink:href="#a"/>
   <use transform="translate(24.319 -28.188)" width="1052.3622" height="744.09448" xlink:href="#a"/>
   <path d="m595.12 357.37-7.9108 0.22602 0.45204 25.992-2.2602 1.8082-0.22603 6.3286-4.0684 1.3561v10.623h2.9383l0.22602-7.4587 1.8082-1.1301 0.45205 8.1368h3.8424l0.45204-7.6847 2.7123 1.1301 0.45204 6.5546 3.1643-0.22602-0.90409-8.5888-2.9383-3.3903-0.22602-5.1985-1.3561-2.4862 0.67806-20.794 2.2602-2.0342 0.45204-3.1643z" fill="#434e52" fill-rule="evenodd" stroke="#000"/>
   <use transform="translate(27.664 -35.665)" width="1052.3622" height="744.09448" xlink:href="#a"/>
   <use transform="translate(9.3652 -34.287)" width="1052.3622" height="744.09448" xlink:href="#a"/>
   <path d="m576.66 385.57 1.2719-23.054 12.719-8.4265 7.1545 21.941-21.146 9.5394z" fill="#3f4044" fill-rule="evenodd" stroke="#000"/>
   <path d="m355.66 453.46s-3.927 11.632-30.394 24.887c-20.3 10.167-53.358 24.887-53.358 24.887l-199.28-51.026s39.88-17.653 72.768-16.282 184.28 25.39 210.27 17.533z" fill="#7f8aa0" fill-rule="evenodd" stroke="#000"/>
   <path d="m291.07 278.28 48.696-26.713 39.792-12.244 16.974-2.2261-61.775 47.583s-10.852 5.8436-16.696 6.9566-20.592 5.287-27.827-0.27826-7.5132-6.9566-7.5132-6.9566l8.348-6.1218z" fill="#56647f" fill-rule="evenodd" stroke="#000"/>
   <path d="m339.42 283.27-12.003 14.364 19.48 0.39353" fill="#373737" fill-rule="evenodd" stroke="#000"/>
   <path d="m413.5 227.91s-14.192 0.27826-26.157 6.4001-22.261 11.409-33.67 20.592-16.696 14.192-16.696 14.192-0.55653 15.861 2.2261 21.148 4.174 8.9045 10.018 12.244 8.6262 3.0609 8.6262 3.0609 14.192 0 27.827-4.7305c13.635-4.7305 21.983-7.5132 30.053-13.078s16.139-12.244 16.139-12.244l-18.366-47.583z" fill="#e8eaf7" fill-rule="evenodd" stroke="#000"/>
   <path d="m426.21 274.15c4.5359-0.63575 4.4676-0.64444 4.301 2.2187-8.1422 3.4691-14.243 2.0574-20.187-3.9893-6.3166-6.4263-10.477-19.827-9.6089-28.753 1.1108-11.427 2.7352-14.036 11.827-15.769-0.27929 2.1135-0.1755 1.259 0.75735 2.044-20.009 17.275 4.6068 45.412 12.91 44.249z" fill="#e9b576" fill-rule="evenodd"/>
   <path d="m436.79 257.22c0.02271 8.1343 1.2927 14.66-5.967 18.68-5.4204 3.0016-11.757 0.85566-17.737-5.0455-6.3552-6.2717-10.958-19.398-9.6677-28.061 1.1176-7.5038 1.5642-13.314 9.1276-15.006 5.4163-1.2115 10.51 2.3025 15.016 6.4114 5.0101 4.5692 9.2092 16.296 9.228 23.021z" fill="#f2f2f2" fill-rule="evenodd" stroke="#000" stroke-linecap="round"/>
   <path d="m434.93 256.71c0.01953 6.9502 1.1112 12.526-5.1291 15.961-4.6593 2.5647-10.106 0.73111-15.246-4.311-5.4628-5.3588-9.4192-16.575-8.3102-23.976 0.96068-6.4115 1.3445-11.376 7.8459-12.821 4.6557-1.0351 9.0345 1.9674 12.907 5.4781 4.3066 3.9041 7.916 13.924 7.9322 19.67z" fill-opacity=".57143" fill-rule="evenodd"/>
   <g transform="translate(24.665 67.244)" fill-rule="evenodd">
    <path d="m466 232.86 48.696-26.713 39.792-12.244 16.974-2.2261-61.775 47.583s-10.852 5.8436-16.696 6.9566-20.592 5.287-27.827-0.27826-7.5132-6.9566-7.5132-6.9566l8.348-6.1218z" fill="#56647f" stroke="#000"/>
    <path d="m514.35 237.86-12.003 14.364 19.48 0.39353" fill="#373737" stroke="#000"/>
    <path d="m588.44 182.5s-14.192 0.27826-26.157 6.4001-22.261 11.409-33.67 20.592-16.696 14.192-16.696 14.192-0.55653 15.861 2.2261 21.148 4.174 8.9045 10.018 12.244 8.6262 3.0609 8.6262 3.0609 14.192 0 27.827-4.7305c13.635-4.7305 21.983-7.5132 30.053-13.078s16.139-12.244 16.139-12.244l-18.366-47.583z" fill="#e8eaf7" stroke="#000"/>
    <path d="m601.14 228.73c4.5359-0.63575 4.4676-0.64444 4.301 2.2187-8.1422 3.4691-14.243 2.0574-20.187-3.9893-6.3166-6.4263-10.477-19.827-9.6089-28.753 1.1108-11.427 2.7352-14.036 11.827-15.769-0.27929 2.1135-0.1755 1.259 0.75735 2.044-20.009 17.275 4.6068 45.412 12.91 44.249z" fill="#e9b576"/>
    <path d="m611.72 211.81c0.02271 8.1343 1.2927 14.66-5.967 18.68-5.4204 3.0016-11.757 0.85566-17.737-5.0455-6.3552-6.2717-10.958-19.398-9.6677-28.061 1.1176-7.5038 1.5642-13.314 9.1276-15.006 5.4163-1.2115 10.51 2.3025 15.016 6.4114 5.0101 4.5692 9.2092 16.296 9.228 23.021z" fill="#f2f2f2" stroke="#000" stroke-linecap="round"/>
    <path d="m609.86 211.3c0.01953 6.9502 1.1112 12.526-5.1291 15.961-4.6593 2.5647-10.106 0.73111-15.246-4.311-5.4628-5.3588-9.4192-16.575-8.3102-23.976 0.96068-6.4115 1.3445-11.376 7.8459-12.821 4.6557-1.0351 9.0345 1.9674 12.907 5.4781 4.3066 3.9041 7.916 13.924 7.9322 19.67z" fill-opacity=".57143"/>
   </g>
   <g transform="matrix(.97784 0 0 .98549 508.56 140.9)" fill-rule="evenodd">
    <path d="m291.07 278.28 48.696-26.713 39.792-12.244 16.974-2.2261-61.775 47.583s-10.852 5.8436-16.696 6.9566-20.592 5.287-27.827-0.27826-7.5132-6.9566-7.5132-6.9566l8.348-6.1218z" fill="#56647f" stroke="#000"/>
    <path d="m339.42 283.27-12.003 14.364 19.48 0.39353" fill="#373737" stroke="#000"/>
    <path d="m413.5 227.91s-14.192 0.27826-26.157 6.4001-22.261 11.409-33.67 20.592-16.696 14.192-16.696 14.192-0.55653 15.861 2.2261 21.148 4.174 8.9045 10.018 12.244 8.6262 3.0609 8.6262 3.0609 14.192 0 27.827-4.7305c13.635-4.7305 21.983-7.5132 30.053-13.078s16.139-12.244 16.139-12.244l-18.366-47.583z" fill="#e8eaf7" stroke="#000"/>
    <path d="m426.21 274.15c4.5359-0.63575 4.4676-0.64444 4.301 2.2187-8.1422 3.4691-14.243 2.0574-20.187-3.9893-6.3166-6.4263-10.477-19.827-9.6089-28.753 1.1108-11.427 2.7352-14.036 11.827-15.769-0.27929 2.1135-0.1755 1.259 0.75735 2.044-20.009 17.275 4.6068 45.412 12.91 44.249z" fill="#e9b576"/>
    <path d="m436.79 257.22c0.02271 8.1343 1.2927 14.66-5.967 18.68-5.4204 3.0016-11.757 0.85566-17.737-5.0455-6.3552-6.2717-10.958-19.398-9.6677-28.061 1.1176-7.5038 1.5642-13.314 9.1276-15.006 5.4163-1.2115 10.51 2.3025 15.016 6.4114 5.0101 4.5692 9.2092 16.296 9.228 23.021z" fill="#f2f2f2" stroke="#000" stroke-linecap="round"/>
    <path d="m434.93 256.71c0.01953 6.9502 1.1112 12.526-5.1291 15.961-4.6593 2.5647-10.106 0.73111-15.246-4.311-5.4628-5.3588-9.4192-16.575-8.3102-23.976 0.96068-6.4115 1.3445-11.376 7.8459-12.821 4.6557-1.0351 9.0345 1.9674 12.907 5.4781 4.3066 3.9041 7.916 13.924 7.9322 19.67z" fill-opacity=".57143"/>
   </g>
   <g transform="matrix(.94952 0 0 .98066 541.19 203.92)" fill-rule="evenodd">
    <path d="m291.07 278.28 48.696-26.713 39.792-12.244 16.974-2.2261-61.775 47.583s-10.852 5.8436-16.696 6.9566-20.592 5.287-27.827-0.27826-7.5132-6.9566-7.5132-6.9566l8.348-6.1218z" fill="#56647f" stroke="#000"/>
    <path d="m339.42 283.27-12.003 14.364 19.48 0.39353" fill="#373737" stroke="#000"/>
    <path d="m413.5 227.91s-14.192 0.27826-26.157 6.4001-22.261 11.409-33.67 20.592-16.696 14.192-16.696 14.192-0.55653 15.861 2.2261 21.148 4.174 8.9045 10.018 12.244 8.6262 3.0609 8.6262 3.0609 14.192 0 27.827-4.7305c13.635-4.7305 21.983-7.5132 30.053-13.078s16.139-12.244 16.139-12.244l-18.366-47.583z" fill="#e8eaf7" stroke="#000"/>
    <path d="m426.21 274.15c4.5359-0.63575 4.4676-0.64444 4.301 2.2187-8.1422 3.4691-14.243 2.0574-20.187-3.9893-6.3166-6.4263-10.477-19.827-9.6089-28.753 1.1108-11.427 2.7352-14.036 11.827-15.769-0.27929 2.1135-0.1755 1.259 0.75735 2.044-20.009 17.275 4.6068 45.412 12.91 44.249z" fill="#e9b576"/>
    <path d="m436.79 257.22c0.02271 8.1343 1.2927 14.66-5.967 18.68-5.4204 3.0016-11.757 0.85566-17.737-5.0455-6.3552-6.2717-10.958-19.398-9.6677-28.061 1.1176-7.5038 1.5642-13.314 9.1276-15.006 5.4163-1.2115 10.51 2.3025 15.016 6.4114 5.0101 4.5692 9.2092 16.296 9.228 23.021z" fill="#f2f2f2" stroke="#000" stroke-linecap="round"/>
    <path d="m434.93 256.71c0.01953 6.9502 1.1112 12.526-5.1291 15.961-4.6593 2.5647-10.106 0.73111-15.246-4.311-5.4628-5.3588-9.4192-16.575-8.3102-23.976 0.96068-6.4115 1.3445-11.376 7.8459-12.821 4.6557-1.0351 9.0345 1.9674 12.907 5.4781 4.3066 3.9041 7.916 13.924 7.9322 19.67z" fill-opacity=".57143"/>
   </g>
  </g>
 </g>
</svg>
